<mxfile host="app.diagrams.net" agent="Mozilla/5.0 (Macintosh; Intel Mac OS X 10_15_7) AppleWebKit/537.36 (KHTML, like Gecko) Chrome/129.0.0.0 Safari/537.36" version="24.8.0">
  <diagram id="prtHgNgQTEPvFCAcTncT" name="Page-1">
    <mxGraphModel dx="1434" dy="761" grid="1" gridSize="10" guides="1" tooltips="1" connect="1" arrows="1" fold="1" page="1" pageScale="1" pageWidth="827" pageHeight="1169" math="0" shadow="0">
      <root>
        <mxCell id="0" />
        <mxCell id="1" parent="0" />
        <mxCell id="eSyjWRRpVgHQ1LCwIY2e-6" value="gitfolio(SWARM)" style="swimlane;startSize=20;horizontal=1;childLayout=flowLayout;flowOrientation=north;resizable=0;interRankCellSpacing=50;containerType=tree;fontSize=12;" parent="1" vertex="1">
          <mxGeometry x="30" y="40" width="670" height="402" as="geometry" />
        </mxCell>
        <mxCell id="eSyjWRRpVgHQ1LCwIY2e-33" value="레포 분석" style="ellipse;whiteSpace=wrap;html=1;align=center;newEdgeStyle={&quot;edgeStyle&quot;:&quot;entityRelationEdgeStyle&quot;,&quot;startArrow&quot;:&quot;none&quot;,&quot;endArrow&quot;:&quot;none&quot;,&quot;segment&quot;:10,&quot;curved&quot;:1,&quot;sourcePerimeterSpacing&quot;:0,&quot;targetPerimeterSpacing&quot;:0};treeFolding=1;treeMoving=1;" parent="eSyjWRRpVgHQ1LCwIY2e-6" vertex="1">
          <mxGeometry x="20" y="263" width="100" height="30" as="geometry" />
        </mxCell>
        <mxCell id="eSyjWRRpVgHQ1LCwIY2e-34" value="코드 -&amp;gt; STR" style="ellipse;whiteSpace=wrap;html=1;align=center;newEdgeStyle={&quot;edgeStyle&quot;:&quot;entityRelationEdgeStyle&quot;,&quot;startArrow&quot;:&quot;none&quot;,&quot;endArrow&quot;:&quot;none&quot;,&quot;segment&quot;:10,&quot;curved&quot;:1,&quot;sourcePerimeterSpacing&quot;:0,&quot;targetPerimeterSpacing&quot;:0};treeFolding=1;treeMoving=1;" parent="eSyjWRRpVgHQ1LCwIY2e-6" vertex="1">
          <mxGeometry x="150" y="263" width="100" height="30" as="geometry" />
        </mxCell>
        <mxCell id="eSyjWRRpVgHQ1LCwIY2e-37" value="STR 분석/요약" style="ellipse;whiteSpace=wrap;html=1;align=center;newEdgeStyle={&quot;edgeStyle&quot;:&quot;entityRelationEdgeStyle&quot;,&quot;startArrow&quot;:&quot;none&quot;,&quot;endArrow&quot;:&quot;none&quot;,&quot;segment&quot;:10,&quot;curved&quot;:1,&quot;sourcePerimeterSpacing&quot;:0,&quot;targetPerimeterSpacing&quot;:0};treeFolding=1;treeMoving=1;" parent="eSyjWRRpVgHQ1LCwIY2e-6" vertex="1">
          <mxGeometry x="280" y="263" width="100" height="30" as="geometry" />
        </mxCell>
        <mxCell id="eSyjWRRpVgHQ1LCwIY2e-36" value="RAG" style="ellipse;whiteSpace=wrap;html=1;align=center;newEdgeStyle={&quot;edgeStyle&quot;:&quot;entityRelationEdgeStyle&quot;,&quot;startArrow&quot;:&quot;none&quot;,&quot;endArrow&quot;:&quot;none&quot;,&quot;segment&quot;:10,&quot;curved&quot;:1,&quot;sourcePerimeterSpacing&quot;:0,&quot;targetPerimeterSpacing&quot;:0};treeFolding=1;treeMoving=1;" parent="eSyjWRRpVgHQ1LCwIY2e-6" vertex="1">
          <mxGeometry x="410" y="260" width="110" height="36" as="geometry" />
        </mxCell>
        <mxCell id="eSyjWRRpVgHQ1LCwIY2e-35" value="문장 가다듬기" style="ellipse;whiteSpace=wrap;html=1;align=center;newEdgeStyle={&quot;edgeStyle&quot;:&quot;entityRelationEdgeStyle&quot;,&quot;startArrow&quot;:&quot;none&quot;,&quot;endArrow&quot;:&quot;none&quot;,&quot;segment&quot;:10,&quot;curved&quot;:1,&quot;sourcePerimeterSpacing&quot;:0,&quot;targetPerimeterSpacing&quot;:0};treeFolding=1;treeMoving=1;" parent="eSyjWRRpVgHQ1LCwIY2e-6" vertex="1">
          <mxGeometry x="550" y="263" width="100" height="30" as="geometry" />
        </mxCell>
        <mxCell id="eSyjWRRpVgHQ1LCwIY2e-43" style="edgeStyle=orthogonalEdgeStyle;rounded=0;orthogonalLoop=1;jettySize=auto;html=1;entryX=0.5;entryY=0;entryDx=0;entryDy=0;noEdgeStyle=1;orthogonal=1;" parent="eSyjWRRpVgHQ1LCwIY2e-6" source="eSyjWRRpVgHQ1LCwIY2e-40" target="eSyjWRRpVgHQ1LCwIY2e-42" edge="1">
          <mxGeometry relative="1" as="geometry">
            <Array as="points">
              <mxPoint x="330.8333333333333" y="112" />
              <mxPoint x="330.8333333333333" y="138" />
            </Array>
          </mxGeometry>
        </mxCell>
        <mxCell id="eSyjWRRpVgHQ1LCwIY2e-40" value="" style="shape=actor;whiteSpace=wrap;html=1;" parent="eSyjWRRpVgHQ1LCwIY2e-6" vertex="1">
          <mxGeometry x="310.8333333333333" y="40" width="40" height="60" as="geometry" />
        </mxCell>
        <mxCell id="eSyjWRRpVgHQ1LCwIY2e-44" style="edgeStyle=orthogonalEdgeStyle;rounded=0;orthogonalLoop=1;jettySize=auto;html=1;entryX=0.5;entryY=0;entryDx=0;entryDy=0;noEdgeStyle=1;orthogonal=1;" parent="eSyjWRRpVgHQ1LCwIY2e-6" source="eSyjWRRpVgHQ1LCwIY2e-42" target="eSyjWRRpVgHQ1LCwIY2e-33" edge="1">
          <mxGeometry relative="1" as="geometry">
            <Array as="points">
              <mxPoint x="286.8333333333333" y="222" />
              <mxPoint x="70" y="248" />
            </Array>
          </mxGeometry>
        </mxCell>
        <mxCell id="eSyjWRRpVgHQ1LCwIY2e-45" style="edgeStyle=orthogonalEdgeStyle;rounded=0;orthogonalLoop=1;jettySize=auto;html=1;entryX=0.5;entryY=0;entryDx=0;entryDy=0;noEdgeStyle=1;orthogonal=1;" parent="eSyjWRRpVgHQ1LCwIY2e-6" source="eSyjWRRpVgHQ1LCwIY2e-42" target="eSyjWRRpVgHQ1LCwIY2e-34" edge="1">
          <mxGeometry relative="1" as="geometry">
            <Array as="points">
              <mxPoint x="308.8333333333333" y="224" />
              <mxPoint x="200" y="248" />
            </Array>
          </mxGeometry>
        </mxCell>
        <mxCell id="eSyjWRRpVgHQ1LCwIY2e-46" style="edgeStyle=orthogonalEdgeStyle;rounded=0;orthogonalLoop=1;jettySize=auto;html=1;entryX=0.5;entryY=0;entryDx=0;entryDy=0;noEdgeStyle=1;orthogonal=1;" parent="eSyjWRRpVgHQ1LCwIY2e-6" source="eSyjWRRpVgHQ1LCwIY2e-42" target="eSyjWRRpVgHQ1LCwIY2e-37" edge="1">
          <mxGeometry relative="1" as="geometry">
            <Array as="points">
              <mxPoint x="330.8333333333333" y="226" />
              <mxPoint x="330" y="248" />
            </Array>
          </mxGeometry>
        </mxCell>
        <mxCell id="eSyjWRRpVgHQ1LCwIY2e-47" style="edgeStyle=orthogonalEdgeStyle;rounded=0;orthogonalLoop=1;jettySize=auto;html=1;entryX=0.5;entryY=0;entryDx=0;entryDy=0;noEdgeStyle=1;orthogonal=1;" parent="eSyjWRRpVgHQ1LCwIY2e-6" source="eSyjWRRpVgHQ1LCwIY2e-42" target="eSyjWRRpVgHQ1LCwIY2e-36" edge="1">
          <mxGeometry relative="1" as="geometry">
            <Array as="points">
              <mxPoint x="352.8333333333333" y="224" />
              <mxPoint x="465" y="248" />
            </Array>
          </mxGeometry>
        </mxCell>
        <mxCell id="eSyjWRRpVgHQ1LCwIY2e-48" style="edgeStyle=orthogonalEdgeStyle;rounded=0;orthogonalLoop=1;jettySize=auto;html=1;entryX=0.5;entryY=0;entryDx=0;entryDy=0;noEdgeStyle=1;orthogonal=1;" parent="eSyjWRRpVgHQ1LCwIY2e-6" source="eSyjWRRpVgHQ1LCwIY2e-42" target="eSyjWRRpVgHQ1LCwIY2e-35" edge="1">
          <mxGeometry relative="1" as="geometry">
            <Array as="points">
              <mxPoint x="374.8333333333333" y="222" />
              <mxPoint x="600" y="248" />
            </Array>
          </mxGeometry>
        </mxCell>
        <mxCell id="eSyjWRRpVgHQ1LCwIY2e-42" value="supervisor" style="rounded=1;whiteSpace=wrap;html=1;" parent="eSyjWRRpVgHQ1LCwIY2e-6" vertex="1">
          <mxGeometry x="270.8333333333333" y="150" width="120" height="60" as="geometry" />
        </mxCell>
        <mxCell id="kOLHh2MNdzjDU-BZtPWZ-1" style="edgeStyle=orthogonalEdgeStyle;rounded=0;orthogonalLoop=1;jettySize=auto;html=1;entryX=0.5;entryY=0;entryDx=0;entryDy=0;noEdgeStyle=1;orthogonal=1;" edge="1" target="kOLHh2MNdzjDU-BZtPWZ-2" source="eSyjWRRpVgHQ1LCwIY2e-36" parent="eSyjWRRpVgHQ1LCwIY2e-6">
          <mxGeometry relative="1" as="geometry">
            <Array as="points">
              <mxPoint x="465" y="308" />
              <mxPoint x="465" y="334" />
            </Array>
            <mxPoint x="523" y="530" as="sourcePoint" />
          </mxGeometry>
        </mxCell>
        <mxCell id="kOLHh2MNdzjDU-BZtPWZ-2" value="샘플이력서.pdf" style="ellipse;whiteSpace=wrap;html=1;align=center;newEdgeStyle={&quot;edgeStyle&quot;:&quot;entityRelationEdgeStyle&quot;,&quot;startArrow&quot;:&quot;none&quot;,&quot;endArrow&quot;:&quot;none&quot;,&quot;segment&quot;:10,&quot;curved&quot;:1,&quot;sourcePerimeterSpacing&quot;:0,&quot;targetPerimeterSpacing&quot;:0};treeFolding=1;treeMoving=1;" vertex="1" parent="eSyjWRRpVgHQ1LCwIY2e-6">
          <mxGeometry x="410" y="346" width="110" height="36" as="geometry" />
        </mxCell>
        <mxCell id="kOLHh2MNdzjDU-BZtPWZ-3" style="edgeStyle=orthogonalEdgeStyle;rounded=0;orthogonalLoop=1;jettySize=auto;html=1;entryX=0.5;entryY=0;entryDx=0;entryDy=0;noEdgeStyle=1;orthogonal=1;" edge="1" target="kOLHh2MNdzjDU-BZtPWZ-4" source="eSyjWRRpVgHQ1LCwIY2e-33" parent="eSyjWRRpVgHQ1LCwIY2e-6">
          <mxGeometry relative="1" as="geometry">
            <Array as="points">
              <mxPoint x="70" y="308" />
              <mxPoint x="70" y="334" />
            </Array>
            <mxPoint x="397" y="410" as="sourcePoint" />
          </mxGeometry>
        </mxCell>
        <mxCell id="kOLHh2MNdzjDU-BZtPWZ-4" value="github token" style="ellipse;whiteSpace=wrap;html=1;align=center;newEdgeStyle={&quot;edgeStyle&quot;:&quot;entityRelationEdgeStyle&quot;,&quot;startArrow&quot;:&quot;none&quot;,&quot;endArrow&quot;:&quot;none&quot;,&quot;segment&quot;:10,&quot;curved&quot;:1,&quot;sourcePerimeterSpacing&quot;:0,&quot;targetPerimeterSpacing&quot;:0};treeFolding=1;treeMoving=1;" vertex="1" parent="eSyjWRRpVgHQ1LCwIY2e-6">
          <mxGeometry x="20" y="349" width="100" height="30" as="geometry" />
        </mxCell>
      </root>
    </mxGraphModel>
  </diagram>
</mxfile>
